<?xml version="1.0" encoding="utf-8"?>
<!-- Generator: Adobe Illustrator 22.1.0, SVG Export Plug-In . SVG Version: 6.00 Build 0)  -->
<svg version="1.1" id="Layer_1" xmlns="http://www.w3.org/2000/svg" xmlns:xlink="http://www.w3.org/1999/xlink" x="0px" y="0px"
	 viewBox="0 0 1280 1024" style="enable-background:new 0 0 1280 1024;" xml:space="preserve">
<style type="text/css">
	.st0{fill:#CCCCCC;}
	.st1{fill:#999999;}
	.st2{fill:#009E58;}
	.st3{fill:#DD1029;}
	.st4{fill:#342A7B;}
	.st5{fill:#00A1C6;}
	.st6{fill:none;}
	.st7{fill:#FFA300;}
</style>
<g>
	<path class="st0" d="M796.5,380.2v263.6c0,13.6-11.1,24.7-24.7,24.7H508.2c-13.6,0-24.7-11.1-24.7-24.7V380.2
		c0-13.6,11.1-24.7,24.7-24.7h263.6C785.4,355.5,796.5,366.6,796.5,380.2z"/>
	<path class="st1" d="M796.5,533.5v110.3c0,13.6-11.1,24.7-24.7,24.7H661.1L540.5,547.9c-4.7-7.2-6.2-16.2-4-24.6l19.7-73.5
		c1.4-5.2,4.1-9.9,7.9-13.7c3.8-3.8,8.5-6.5,13.7-7.9l73.5-19.7c8-2.1,16.5-0.9,23.5,3.3l64.4,64.4L796.5,533.5z"/>
	<g>
		<g>
			<g>
				<path d="M659.6,427.6l-22,82l-82,22l18.6-69.2c2.1-7.9,8.3-14.1,16.2-16.2L659.6,427.6z"/>
				<g>
					<path d="M640.6,520.7l56.8,56.8l-67,18c-7.9,2.1-16.3-0.1-22.1-5.9l-47.4-47.4L640.6,520.7z"/>
					<path d="M670.1,432.8l47.4,47.4c5.8,5.8,8,14.2,5.9,22.1l-18,67l-56.8-56.8L670.1,432.8z"/>
				</g>
			</g>
			<path d="M651.3,408.5l-73.5,19.7c-5.2,1.4-9.9,4.1-13.7,7.9c-3.8,3.8-6.5,8.5-7.9,13.7l-19.7,73.5c-2.8,10.5,0.2,21.8,7.9,29.5
				l53.8,53.8c7.7,7.7,19,10.7,29.5,7.9l73.5-19.7c5.2-1.4,9.9-4.1,13.7-7.9s6.5-8.5,7.9-13.7l19.7-73.5c2.8-10.5-0.2-21.8-7.9-29.5
				l-53.8-53.8C673.1,408.8,661.8,405.7,651.3,408.5z M727.9,476.9c5.3,5.3,7.4,13.1,5.5,20.4l-19.7,73.5c-1,3.6-2.9,6.9-5.5,9.5
				c-2.6,2.6-5.8,4.5-9.5,5.5l-73.5,19.7c-7.3,1.9-15-0.1-20.4-5.5l-53.8-53.8c-5.3-5.3-7.4-13.1-5.5-20.4l19.7-73.5
				c1-3.6,2.9-6.9,5.5-9.5c2.6-2.6,5.8-4.5,9.5-5.5l73.5-19.7c7.3-1.9,15,0.1,20.4,5.5L727.9,476.9z"/>
		</g>
		<path class="st2" d="M560.8,542.1l79.8-21.4l56.8,56.8l-67,18c-7.9,2.1-16.3-0.1-22.1-5.9L560.8,542.1z"/>
		<path class="st3" d="M659.6,427.6l-22,82l-82,22l18.6-69.2c2.1-7.9,8.3-14.1,16.2-16.2L659.6,427.6z"/>
		<path class="st4" d="M670.1,432.8l47.4,47.4c5.8,5.8,8,14.2,5.9,22.1l-14.7,54.7l-3.3,12.3l-56.8-56.8L670.1,432.8z"/>
		<path class="st5" d="M739.2,476.2c-1.3-2.2-2.8-4.2-4.6-6l-53.8-53.8c-1.8-1.8-3.8-3.4-6-4.7c-7-4.1-15.5-5.4-23.5-3.3l-73.5,19.7
			c-5.2,1.4-9.9,4.1-13.7,7.9c-3.8,3.8-6.5,8.5-7.9,13.7l-19.7,73.5c-2.3,8.5-0.7,17.4,4,24.6c1.1,1.7,2.4,3.3,3.9,4.8l53.8,53.8
			c1.5,1.5,3.1,2.8,4.8,3.9c7.2,4.7,16.2,6.2,24.6,4l73.5-19.7c5.2-1.4,9.9-4.1,13.7-7.9c3.8-3.8,6.5-8.5,7.9-13.7l4-14.8l15.7-58.7
			C744.6,491.7,743.4,483.2,739.2,476.2z M733.4,497.3l-17.8,66.6l-1.9,6.9c-1,3.6-2.9,6.9-5.5,9.4c-2.6,2.6-5.8,4.5-9.5,5.5
			l-73.5,19.7c-7.3,2-15.1-0.1-20.4-5.5l-53.8-53.8c-5.3-5.3-7.4-13.1-5.5-20.4l19.7-73.5c1-3.6,2.9-6.9,5.5-9.5
			c2.6-2.6,5.8-4.5,9.5-5.5l73.5-19.7c7.3-2,15.1,0.1,20.4,5.5l53.8,53.8C733.2,482.2,735.3,490,733.4,497.3z"/>
		<g>
			<path class="st6" d="M574.2,462.4l-18.6,69.2l82-22l22-82l-69.2,18.5C582.4,448.3,576.3,454.5,574.2,462.4z"/>
			<path class="st7" d="M733.4,497.3c1.9-7.3-0.1-15-5.5-20.4l-53.8-53.8c-5.3-5.3-13.1-7.4-20.4-5.5l-73.5,19.7
				c-3.6,1-6.9,2.9-9.5,5.5c-2.6,2.6-4.5,5.8-5.5,9.5l-19.7,73.5c-1.9,7.3,0.1,15,5.5,20.4l20.2,20.2c1.3,1.3,3.2,1.9,4.9,1.3
				c0.8-0.2,1.5-0.7,2-1.2c1.8-1.8,2-4.9,0-6.9l-17.4-17.4l79.8-21.4l17.9,17.9c2.2,2.2,5.7,2.3,8,0.2c0.1-0.1,0.1-0.1,0.2-0.2
				c2.2-2.2,2.3-5.9,0-8.2l-17.9-17.9l21.4-79.8l47.4,47.4c5.8,5.8,8,14.2,5.9,22.1l-6.4,23.9c-0.7,2.6,1.3,5.2,4,5.2h0
				c1.9,0,3.5-1.3,4-3.1L733.4,497.3z M637.6,509.6l-82,22l18.6-69.2c2.1-7.9,8.3-14.1,16.2-16.2l69.2-18.5L637.6,509.6z"/>
		</g>
	</g>
</g>
</svg>
